<svg xmlns="http://www.w3.org/2000/svg" viewBox="0 0 24 24" fill="none" stroke="currentColor" stroke-width="1.8" stroke-linecap="round" stroke-linejoin="round"><path d="M16.3 17.6c2.9 0 5.1-2.35 5.1-5.2 0-1.4-.55-2.65-1.55-3.65.15-1.8-1.25-3.3-3.05-3.35C15.5 3.2 12.7 2.6 10.5 3.7 8.4 3.3 6.3 4.65 5.75 6.65 3.8 7.4 2.6 9.25 2.6 11.3c0 2.5 1.8 4.7 4.3 5.1.8 1.3 2.45 1.75 3.8 1.25l1.1 3.1h3.4l-1.3-3.25 2.4.1Z"/><path d="M10.5 3.7c1 1.35 1.05 2.95.1 4.15M5.75 6.65c1.55-.05 2.6.85 2.85 2.25M16.8 5.4c-1.25.85-1.7 2.1-1.3 3.4M3 9.55c1.3 1.6 3.1 2.1 4.8 1.25M9.75 13.3c.25-1.8 1.45-2.8 3.15-2.6M19.85 8.75c-.45 1.6-1.7 2.75-3.2 2.75M6.9 16.4c1.25-.3 2.05-1.25 2.05-2.35M16.3 17.6c.25-1.9-.8-3.2-2.55-3.5"/></svg>
